<svg width="441" height="150" viewBox="0 0 441 150" fill="none" xmlns="http://www.w3.org/2000/svg">
<path d="M99.0909 49.5625C98.0966 46.1061 96.6998 43.0521 94.9006 40.4006C93.1013 37.7017 90.8996 35.429 88.2955 33.5824C85.7386 31.6884 82.803 30.2443 79.4886 29.25C76.2216 28.2557 72.5994 27.7585 68.6222 27.7585C61.1884 27.7585 54.6544 29.6051 49.0199 33.2983C43.4328 36.9915 39.0767 42.3655 35.9517 49.4205C32.8267 56.428 31.2642 64.9981 31.2642 75.1307C31.2642 85.2633 32.803 93.8807 35.8807 100.983C38.9583 108.085 43.3144 113.507 48.9489 117.247C54.5833 120.94 61.2358 122.787 68.9062 122.787C75.8665 122.787 81.8087 121.556 86.733 119.094C91.7046 116.584 95.4924 113.057 98.0966 108.511C100.748 103.966 102.074 98.5919 102.074 92.3892L108.324 93.3125H70.8239V70.1591H131.69V88.483C131.69 101.267 128.991 112.252 123.594 121.438C118.196 130.576 110.762 137.631 101.293 142.602C91.8229 147.527 80.9801 149.989 68.7642 149.989C55.1278 149.989 43.1487 146.982 32.8267 140.969C22.5047 134.908 14.4555 126.314 8.67898 115.188C2.94981 104.013 0.0852273 90.7557 0.0852273 75.4148C0.0852273 63.625 1.78977 53.1136 5.19886 43.8807C8.6553 34.6004 13.4848 26.7405 19.6875 20.3011C25.8902 13.8617 33.1108 8.96117 41.3494 5.59943C49.5881 2.23768 58.5133 0.556813 68.125 0.556813C76.3636 0.556813 84.0341 1.7642 91.1364 4.17898C98.2386 6.5464 104.536 9.90814 110.028 14.2642C115.568 18.6203 120.09 23.8049 123.594 29.8182C127.098 35.7841 129.347 42.3655 130.341 49.5625H99.0909ZM251.239 49.5625C250.245 46.1061 248.848 43.0521 247.049 40.4006C245.25 37.7017 243.048 35.429 240.444 33.5824C237.887 31.6884 234.951 30.2443 231.637 29.25C228.37 28.2557 224.748 27.7585 220.771 27.7585C213.337 27.7585 206.803 29.6051 201.168 33.2983C195.581 36.9915 191.225 42.3655 188.1 49.4205C184.975 56.428 183.413 64.9981 183.413 75.1307C183.413 85.2633 184.951 93.8807 188.029 100.983C191.107 108.085 195.463 113.507 201.097 117.247C206.732 120.94 213.384 122.787 221.055 122.787C228.015 122.787 233.957 121.556 238.881 119.094C243.853 116.584 247.641 113.057 250.245 108.511C252.897 103.966 254.222 98.5919 254.222 92.3892L260.472 93.3125H222.972V70.1591H283.839V88.483C283.839 101.267 281.14 112.252 275.742 121.438C270.344 130.576 262.911 137.631 253.441 142.602C243.971 147.527 233.129 149.989 220.913 149.989C207.276 149.989 195.297 146.982 184.975 140.969C174.653 134.908 166.604 126.314 160.827 115.188C155.098 104.013 152.234 90.7557 152.234 75.4148C152.234 63.625 153.938 53.1136 157.347 43.8807C160.804 34.6004 165.633 26.7405 171.836 20.3011C178.039 13.8617 185.259 8.96117 193.498 5.59943C201.737 2.23768 210.662 0.556813 220.273 0.556813C228.512 0.556813 236.183 1.7642 243.285 4.17898C250.387 6.5464 256.684 9.90814 262.177 14.2642C267.717 18.6203 272.238 23.8049 275.742 29.8182C279.246 35.7841 281.495 42.3655 282.489 49.5625H251.239ZM440.604 75.2727C440.604 91.1345 437.597 104.629 431.584 115.756C425.618 126.883 417.474 135.382 407.152 141.253C396.877 147.077 385.324 149.989 372.493 149.989C359.567 149.989 347.966 147.053 337.692 141.182C327.417 135.311 319.297 126.812 313.331 115.685C307.365 104.558 304.382 91.0871 304.382 75.2727C304.382 59.411 307.365 45.9167 313.331 34.7898C319.297 23.6629 327.417 15.1875 337.692 9.36364C347.966 3.49242 359.567 0.556813 372.493 0.556813C385.324 0.556813 396.877 3.49242 407.152 9.36364C417.474 15.1875 425.618 23.6629 431.584 34.7898C437.597 45.9167 440.604 59.411 440.604 75.2727ZM409.425 75.2727C409.425 64.9981 407.886 56.3333 404.808 49.2784C401.778 42.2235 397.493 36.8731 391.953 33.2273C386.413 29.5814 379.927 27.7585 372.493 27.7585C365.059 27.7585 358.572 29.5814 353.033 33.2273C347.493 36.8731 343.184 42.2235 340.107 49.2784C337.076 56.3333 335.561 64.9981 335.561 75.2727C335.561 85.5473 337.076 94.2121 340.107 101.267C343.184 108.322 347.493 113.672 353.033 117.318C358.572 120.964 365.059 122.787 372.493 122.787C379.927 122.787 386.413 120.964 391.953 117.318C397.493 113.672 401.778 108.322 404.808 101.267C407.886 94.2121 409.425 85.5473 409.425 75.2727Z" fill="white"/>
</svg>
